<svg width="20" height="20" viewBox="0 0 20 20" fill="none" xmlns="http://www.w3.org/2000/svg">
<path d="M14.7141 4.41989C12.1108 1.85906 7.88996 1.85906 5.28662 4.41989C4.66852 5.02375 4.17738 5.74509 3.84205 6.54148C3.50672 7.33788 3.33398 8.19328 3.33398 9.05739C3.33398 9.92151 3.50672 10.7769 3.84205 11.5733C4.17738 12.3697 4.66852 13.091 5.28662 13.6949L9.99996 18.3324L14.7141 13.6949C15.3322 13.091 15.8234 12.3697 16.1587 11.5733C16.494 10.7769 16.6668 9.92151 16.6668 9.05739C16.6668 8.19328 16.494 7.33788 16.1587 6.54148C15.8234 5.74509 15.3322 5.02375 14.7141 4.41989ZM9.99996 11.2491C9.44329 11.2491 8.92079 11.0324 8.52662 10.6391C8.13641 10.248 7.91727 9.71815 7.91727 9.16573C7.91727 8.6133 8.13641 8.08343 8.52662 7.69239C8.91996 7.29906 9.44329 7.08239 9.99996 7.08239C10.5566 7.08239 11.08 7.29906 11.4733 7.69239C11.8635 8.08343 12.0826 8.6133 12.0826 9.16573C12.0826 9.71815 11.8635 10.248 11.4733 10.6391C11.08 11.0324 10.5566 11.2491 9.99996 11.2491Z" fill="white" fill-opacity="0.9"/>
</svg>
