<svg width="22" height="27" viewBox="0 0 22 27" fill="none" xmlns="http://www.w3.org/2000/svg">
<path d="M11 0.5C4.93533 0.5 0 4.90483 0 10.3204C0 18.0153 9.966 25.9605 10.3901 26.2942C10.5649 26.4318 10.7824 26.5 11 26.5C11.2176 26.5 11.4351 26.4318 11.6099 26.2953C12.034 25.9605 22 18.0153 22 10.3204C22 4.90483 17.0647 0.5 11 0.5ZM11 15.6667C7.63033 15.6667 4.88889 13.2368 4.88889 10.25C4.88889 7.26325 7.63033 4.83333 11 4.83333C14.3697 4.83333 17.1111 7.26325 17.1111 10.25C17.1111 13.2368 14.3697 15.6667 11 15.6667Z" fill="white"/>
</svg>
