<svg width="22" height="23" viewBox="0 0 22 23" fill="none" xmlns="http://www.w3.org/2000/svg">
<path d="M14.2552 12.4131L12.4127 14.2619C11.6655 15.0117 10.3508 15.0278 9.58746 14.2619L7.74483 12.4131L1.12695 19.0524C1.37329 19.1664 1.6449 19.2343 1.93365 19.2343H20.0665C20.3552 19.2343 20.6267 19.1664 20.873 19.0525L14.2552 12.4131Z" fill="white"/>
<path d="M20.0664 3.76562H1.93356C1.64481 3.76562 1.37321 3.8336 1.12695 3.94751L8.19862 11.0426C8.19909 11.0431 8.19965 11.0432 8.20012 11.0437C8.2006 11.0441 8.20068 11.0448 8.20068 11.0448L10.5001 13.3518C10.7443 13.596 11.2557 13.596 11.5 13.3518L13.7989 11.0452C13.7989 11.0452 13.7994 11.0441 13.7999 11.0437C13.7999 11.0437 13.8009 11.0431 13.8014 11.0426L20.8729 3.94747C20.6266 3.83352 20.3551 3.76562 20.0664 3.76562Z" fill="white"/>
<path d="M0.205648 4.84888C0.0782031 5.1066 0 5.39269 0 5.69914V17.3007C0 17.6072 0.0781172 17.8932 0.205605 18.151L6.83495 11.5001L0.205648 4.84888Z" fill="white"/>
<path d="M21.7943 4.84888L15.165 11.5002L21.7943 18.1511C21.9217 17.8934 21.9999 17.6073 21.9999 17.3008V5.69923C21.9999 5.39269 21.9217 5.1066 21.7943 4.84888Z" fill="white"/>
</svg>
