<svg width="20" height="20" viewBox="0 0 20 20" fill="none" xmlns="http://www.w3.org/2000/svg">
<path d="M10.0003 17.7086V7.4128M10.0003 3.77865V2.29199M10.0003 3.77865C10.4821 3.77865 10.9442 3.97005 11.2849 4.31074C11.6256 4.65143 11.8169 5.1135 11.8169 5.59531C11.8169 6.07712 11.6256 6.53919 11.2849 6.87988C10.9442 7.22057 10.4821 7.41197 10.0003 7.41197C9.51848 7.41197 9.05641 7.22057 8.71572 6.87988C8.37503 6.53919 8.18363 6.07712 8.18363 5.59531C8.18363 5.1135 8.37503 4.65143 8.71572 4.31074C9.05641 3.97005 9.51848 3.77865 10.0003 3.77865ZM4.49448 17.7086L4.49448 12.9186M4.49448 12.9186C4.01257 12.9186 3.54997 12.7267 3.2092 12.386C2.86843 12.0452 2.67699 11.583 2.67699 11.1011C2.67699 10.6193 2.86922 10.1572 3.20991 9.81655C3.5506 9.47586 4.01268 9.28446 4.49448 9.28446M4.49448 12.9186C4.9764 12.9186 5.43817 12.7267 5.77893 12.386C6.1197 12.0452 6.31114 11.583 6.31114 11.1011C6.31114 10.6193 6.11974 10.1572 5.77905 9.81655C5.43836 9.47586 4.97629 9.28446 4.49448 9.28446M4.49448 9.28446V2.29199M15.5061 17.7086V15.1211M15.5061 11.4869V2.29199M15.5061 11.4869C15.9879 11.4869 16.45 11.6783 16.7907 12.019C17.1314 12.3597 17.3228 12.8218 17.3228 13.3036C17.3228 13.5422 17.2758 13.7784 17.1845 13.9988C17.0932 14.2192 16.9594 14.4195 16.7907 14.5882C16.622 14.7569 16.4217 14.8907 16.2013 14.982C15.9809 15.0733 15.7447 15.1203 15.5061 15.1203C15.2675 15.1203 15.0313 15.0733 14.8109 14.982C14.5905 14.8907 14.3902 14.7569 14.2215 14.5882C14.0528 14.4195 13.919 14.2192 13.8277 13.9988C13.7364 13.7784 13.6894 13.5422 13.6894 13.3036C13.6894 12.8218 13.8808 12.3597 14.2215 12.019C14.5622 11.6783 15.0243 11.4869 15.5061 11.4869Z" stroke="white" stroke-miterlimit="10" stroke-linecap="round"/>
</svg>
