<svg width="86" height="86" viewBox="0 0 86 86" fill="none" xmlns="http://www.w3.org/2000/svg">
<rect width="86" height="86" rx="43" fill="url(#paint0_linear_26_2216)"/>
<path fill-rule="evenodd" clip-rule="evenodd" d="M40.5607 41.9393C41.1464 42.5251 41.1464 43.4749 40.5607 44.0607L30.5607 54.0607C29.9749 54.6464 29.0251 54.6464 28.4393 54.0607C27.8536 53.4749 27.8536 52.5251 28.4393 51.9393L37.3787 43L28.4393 34.0607C27.8536 33.4749 27.8536 32.5251 28.4393 31.9393C29.0251 31.3536 29.9749 31.3536 30.5607 31.9393L40.5607 41.9393Z" fill="white"/>
<path fill-rule="evenodd" clip-rule="evenodd" d="M56.5607 41.9393C57.1464 42.5251 57.1464 43.4749 56.5607 44.0607L46.5607 54.0607C45.9749 54.6464 45.0251 54.6464 44.4393 54.0607C43.8536 53.4749 43.8536 52.5251 44.4393 51.9393L53.3787 43L44.4393 34.0607C43.8536 33.4749 43.8536 32.5251 44.4393 31.9393C45.0251 31.3536 45.9749 31.3536 46.5607 31.9393L56.5607 41.9393Z" fill="white"/>
<defs>
<linearGradient id="paint0_linear_26_2216" x1="3.80116e-06" y1="-22.3958" x2="86" y2="100.333" gradientUnits="userSpaceOnUse">
<stop offset="0.278846" stop-color="#467EFE"/>
<stop offset="0.627301" stop-color="#17DBFC"/>
<stop offset="1" stop-color="white"/>
</linearGradient>
</defs>
</svg>
