<svg width="23" height="35" viewBox="0 0 23 35" fill="none" xmlns="http://www.w3.org/2000/svg">
<path fill-rule="evenodd" clip-rule="evenodd" d="M9.35734 14.9742H12.4523V16.5159C12.8982 15.6292 14.0415 14.8326 15.759 14.8326C19.0515 14.8326 19.8332 16.5976 19.8332 19.8359V25.8334H16.4998V20.5734C16.4998 18.7292 16.054 17.6892 14.919 17.6892C13.3448 17.6892 12.6907 18.8101 12.6907 20.5726V25.8334H9.35734V14.9742ZM3.6415 25.6917H6.97484V14.8326H3.6415V25.6917ZM7.45234 11.2917C7.45246 11.5711 7.39705 11.8478 7.28933 12.1056C7.1816 12.3634 7.02371 12.5972 6.82484 12.7934C6.62537 12.9918 6.38876 13.149 6.12852 13.256C5.86829 13.3629 5.58953 13.4176 5.30817 13.4167C4.74117 13.4155 4.19727 13.192 3.79317 12.7942C3.59509 12.5973 3.43778 12.3632 3.33025 12.1054C3.22272 11.8476 3.16708 11.5711 3.1665 11.2917C3.1665 10.7276 3.3915 10.1876 3.794 9.78925C4.19709 9.38998 4.74165 9.16623 5.309 9.16675C5.87734 9.16675 6.42234 9.39092 6.82484 9.78925C7.22734 10.1876 7.45234 10.7276 7.45234 11.2917Z" fill="#467EFE"/>
</svg>
