<svg width="19" height="19" viewBox="0 0 19 19" fill="none" xmlns="http://www.w3.org/2000/svg">
<path d="M2.76719 16.1782C2.32383 16.1782 1.95394 16.0421 1.65751 15.7698C1.36109 15.4976 1.21256 15.1576 1.21191 14.7499V5.23251C1.21191 4.82535 1.36045 4.48565 1.65751 4.21342C1.95458 3.9412 2.32415 3.80479 2.76622 3.8042H16.9812C17.4239 3.8042 17.7935 3.94061 18.0899 4.21342C18.3863 4.48624 18.5348 4.82594 18.5355 5.23251V14.7508C18.5355 15.1573 18.387 15.497 18.0899 15.7698C17.7928 16.0427 17.4233 16.1788 16.9812 16.1782H2.76719ZM9.8737 10.0937L17.5731 5.47027L17.2766 4.68806L9.8737 9.10733L2.47076 4.68806L2.17433 5.47027L9.8737 10.0937Z" fill="#467EFE"/>
</svg>
