<svg width="25" height="25" viewBox="0 0 25 25" fill="none" xmlns="http://www.w3.org/2000/svg">
<path d="M7.79407 16.8581C10.6408 19.8818 14.1078 22.2153 16.9344 22.2153C18.2052 22.2153 19.3181 21.7443 20.2144 20.6979C20.7364 20.0804 21.0617 19.3586 21.0617 18.6474C21.0617 18.1242 20.8742 17.622 20.4019 17.2662L17.3874 14.9849C16.9248 14.6501 16.5407 14.4827 16.186 14.4827C15.7329 14.4827 15.3387 14.755 14.8857 15.2255L14.1864 15.9581C14.1375 16.0108 14.0793 16.0527 14.0151 16.0814C13.9509 16.1101 13.8821 16.1251 13.8124 16.1255C13.6548 16.1255 13.5166 16.063 13.4086 16.0104C12.8076 15.6653 11.7637 14.713 10.7883 13.6876C9.82302 12.6621 8.92664 11.5532 8.61145 10.9046C8.54357 10.7765 8.50647 10.6327 8.50345 10.4858C8.50345 10.3501 8.54253 10.2135 8.65096 10.0988L9.34016 9.33536C9.78394 8.85366 10.0399 8.43491 10.0399 7.95366C10.0399 7.57732 9.88228 7.16929 9.55743 6.67732L7.43939 3.50679C7.09479 3.00456 6.61234 2.78491 6.08031 2.78491C5.43019 2.78491 4.75065 3.09875 4.17954 3.69563C3.2239 4.66884 2.80029 5.87152 2.80029 7.20009C2.80029 10.2032 4.95742 13.8447 7.79407 16.8581Z" fill="#467EFE"/>
</svg>
